<?xml version="1.0" encoding="UTF-8" standalone="no"?>
<!-- Created with Inkscape (http://www.inkscape.org/) -->

<svg
   xmlns:dc="http://purl.org/dc/elements/1.1/"
   xmlns:cc="http://creativecommons.org/ns#"
   xmlns:rdf="http://www.w3.org/1999/02/22-rdf-syntax-ns#"
   xmlns:svg="http://www.w3.org/2000/svg"
   xmlns="http://www.w3.org/2000/svg"
   xmlns:xlink="http://www.w3.org/1999/xlink"
   xmlns:sodipodi="http://sodipodi.sourceforge.net/DTD/sodipodi-0.dtd"
   xmlns:inkscape="http://www.inkscape.org/namespaces/inkscape"
   width="372.97394mm"
   height="121.27615mm"
   viewBox="0 0 1321.5612 429.71863"
   id="svg2"
   version="1.1"
   inkscape:version="0.91 r"
   sodipodi:docname="logonobg.svg"
   inkscape:export-filename="/home/skylar/Documents/Projects/Assets/TerranQuest/logo-3.0/png/logonobg.png"
   inkscape:export-xdpi="52.369881"
   inkscape:export-ydpi="52.369881">
  <defs
     id="defs4">
    <linearGradient
       gradientTransform="matrix(6.3287256,0,0,6.3287256,-2182.5002,-4191.7006)"
       gradientUnits="userSpaceOnUse"
       y2="729.69025"
       x2="358.13071"
       y1="659.96277"
       x1="358.13071"
       id="linearGradient4044"
       xlink:href="#linearGradient2503-4-2-6"
       inkscape:collect="always" />
    <linearGradient
       id="linearGradient2503-4-2-6">
      <stop
         offset="0"
         style="stop-color:#27ace9;stop-opacity:1;"
         id="stop2505-8-4-8" />
      <stop
         offset="1"
         style="stop-color:#34bd3a;stop-opacity:1;"
         id="stop2507-8-8-6" />
    </linearGradient>
    <linearGradient
       gradientTransform="matrix(6.3287256,0,0,6.3287256,-2182.5002,-4191.7006)"
       gradientUnits="userSpaceOnUse"
       y2="847.44897"
       x2="355.33951"
       y1="567.7243"
       x1="355.33951"
       id="linearGradient4086"
       xlink:href="#linearGradient3321"
       inkscape:collect="always" />
    <linearGradient
       id="linearGradient3321">
      <stop
         offset="0"
         style="stop-color:#000000;stop-opacity:1;"
         id="stop3323" />
      <stop
         offset="1"
         style="stop-color:#000000;stop-opacity:1;"
         id="stop3325" />
    </linearGradient>
  </defs>
  <sodipodi:namedview
     id="base"
     pagecolor="#ffffff"
     bordercolor="#666666"
     borderopacity="1.0"
     inkscape:pageopacity="0.0"
     inkscape:pageshadow="2"
     inkscape:zoom="0.35"
     inkscape:cx="200.06632"
     inkscape:cy="12.002171"
     inkscape:document-units="px"
     inkscape:current-layer="text3580"
     showgrid="false"
     fit-margin-top="0"
     fit-margin-left="0"
     fit-margin-right="0"
     fit-margin-bottom="0"
     inkscape:window-width="1920"
     inkscape:window-height="1022"
     inkscape:window-x="0"
     inkscape:window-y="0"
     inkscape:window-maximized="1" />
  <metadata
     id="metadata7">
    <rdf:RDF>
      <cc:Work
         rdf:about="">
        <dc:format>image/svg+xml</dc:format>
        <dc:type
           rdf:resource="http://purl.org/dc/dcmitype/StillImage" />
        <dc:title />
      </cc:Work>
    </rdf:RDF>
  </metadata>
  <g
     inkscape:label="Layer 1"
     inkscape:groupmode="layer"
     id="layer1"
     transform="translate(252.20918,-114.64574)">
    <g
       id="g4740"
       transform="matrix(0.57053535,0,0,0.57053535,343.19761,121.49738)"
       inkscape:export-xdpi="34.138618"
       inkscape:export-ydpi="34.138618">
      <g
         transform="scale(0.9510588,1.0514597)"
         style="font-style:normal;font-variant:normal;font-weight:normal;font-stretch:normal;font-size:75.94471741px;line-height:125%;font-family:Sans-serif;-inkscape-font-specification:Sans-serif;letter-spacing:0px;word-spacing:0px;fill:url(#linearGradient4044);fill-opacity:1;stroke:url(#linearGradient4086);stroke-width:20.66851616;stroke-miterlimit:4;stroke-dasharray:none;stroke-opacity:1"
         id="text3580">
        <path
           d="m -640.85521,68.883788 q 0,-12.961231 -7.69573,-25.517424 -7.69573,-12.961232 -24.30231,-24.707348 -13.77131,12.961232 -41.71896,21.46704 -27.94766,8.10077 -70.07166,13.771308 -13.36627,2.025193 -22.68216,2.430231 -9.31588,0.405039 -14.58138,0.405039 -5.67054,0 -15.7965,-0.405039 -9.72093,-0.405038 -24.30231,-2.430231 -55.08524,-4.860462 -89.10847,-22.277116 -8.10077,-2.430231 -13.77131,-5.670539 -5.2655,-3.645346 -9.31588,-7.290693 -16.60658,11.746116 -24.30231,24.707348 -7.69571,12.556193 -7.69571,25.517424 0,33.213152 44.14917,60.350732 l 7.69573,3.64535 q -25.92246,-15.7965 -25.92246,-32.80812 0,-6.480614 3.24031,-12.96123 3.24031,-6.480616 11.34108,-12.151155 3.64534,-2.835269 6.88565,-4.860461 3.64535,-2.025193 6.07558,-4.050385 27.94765,11.746116 54.27515,19.036808 26.73254,6.885655 53.46508,8.10077 l 0,450.402793 q 0,27.54262 -5.67053,43.33912 -5.2655,15.7965 -16.20154,18.22673 8.91084,0 16.60657,-3.64535 7.69574,-3.24031 15.79651,-9.31588 12.96123,39.69377 52.24996,59.13562 11.74612,6.88565 24.70735,10.12596 12.96123,3.24031 26.73254,4.86046 -11.74612,-1.62015 -22.27712,-6.88565 -10.531,-4.86047 -19.03681,-14.98643 -29.97285,-32.40308 -29.97285,-92.34877 l 0,-458.908603 q 49.81974,-2.430231 105.31001,-26.73254 26.73254,17.416655 26.73254,35.238353 0,15.7965 -22.68216,31.18796 l 7.69574,-3.64535 q 44.14919,-25.51742 44.14919,-60.350732 z"
           style="font-style:normal;font-variant:normal;font-weight:normal;font-stretch:normal;font-size:405.03848267px;font-family:Endor;-inkscape-font-specification:Endor;letter-spacing:9.49308968px;fill:url(#linearGradient4044);fill-opacity:1;stroke:#000000;stroke-width:8.76369886;stroke-miterlimit:4;stroke-dasharray:none;stroke-opacity:1"
           id="path4294" />
        <path
           d="m -487.92786,403.44557 0,-101.25962 -38.07362,-41.71896 -12.15115,10.12596 q -8.10077,6.88566 -19.84689,13.36627 -11.34108,6.48062 -27.13758,12.5562 -10.12596,4.05038 -17.82169,6.48061 -7.69573,2.02519 -14.17635,2.83527 l -6.07558,0.40504 0,97.20923 q 0,95.99413 93.15886,115.84101 9.31588,2.02519 19.0368,2.83527 -44.55423,-6.07558 -61.97088,-64.40112 8.91084,-6.88565 21.062,-14.98642 12.55619,-8.50581 28.75773,-17.8217 12.55619,-7.29069 21.46704,-12.55619 8.91085,-5.67054 13.77131,-8.91085 z m -42.124,12.15116 q -7.69574,4.05038 -19.03681,11.34108 -11.34108,7.29069 -26.73254,17.82169 -4.45543,-19.03681 -4.45543,-29.16277 l -0.81007,-112.19566 28.35269,-9.72092 22.68216,26.3275 0,95.58908 z"
           style="font-style:normal;font-variant:normal;font-weight:normal;font-stretch:normal;font-size:405.03848267px;font-family:Endor;-inkscape-font-specification:Endor;letter-spacing:9.49308968px;fill:url(#linearGradient4044);fill-opacity:1;stroke:#000000;stroke-width:8.76369886;stroke-miterlimit:4;stroke-dasharray:none;stroke-opacity:1"
           id="path4296" />
        <path
           d="m -313.86261,308.66657 q 0,-23.49223 -31.593,-47.79454 -12.96123,11.74611 -26.3275,21.062 -12.96123,9.31589 -24.70735,16.60658 l -31.593,-41.71897 -31.18796,27.54262 27.13757,31.593 0,135.28286 -15.7965,11.34107 42.12401,23.49224 36.8585,-27.13758 -22.68216,-11.34108 0,-138.9282 q 4.45543,-2.02519 10.93604,-4.05038 6.88566,-2.43024 15.39146,-5.67054 29.16278,16.60657 26.73254,33.21315 -1.21511,7.69573 -8.10077,14.98643 -6.88565,7.29069 -18.63177,14.58138 l 7.69574,-2.83527 q 43.74415,-19.03681 43.74415,-50.22477 z"
           style="font-style:normal;font-variant:normal;font-weight:normal;font-stretch:normal;font-size:405.03848267px;font-family:Endor;-inkscape-font-specification:Endor;letter-spacing:9.49308968px;fill:url(#linearGradient4044);fill-opacity:1;stroke:#000000;stroke-width:8.76369886;stroke-miterlimit:4;stroke-dasharray:none;stroke-opacity:1"
           id="path4298" />
        <path
           d="m -157.22662,308.66657 q 0,-23.49223 -31.593,-47.79454 -12.96123,11.74611 -26.3275,21.062 -12.96124,9.31589 -24.70735,16.60658 l -31.593,-41.71897 -31.18797,27.54262 27.13758,31.593 0,135.28286 -15.7965,11.34107 42.124,23.49224 36.8585,-27.13758 -22.68215,-11.34108 0,-138.9282 q 4.45542,-2.02519 10.93604,-4.05038 6.88565,-2.43024 15.39146,-5.67054 29.16277,16.60657 26.73254,33.21315 -1.21511,7.69573 -8.10077,14.98643 -6.88565,7.29069 -18.63177,14.58138 l 7.69573,-2.83527 q 43.74416,-19.03681 43.74416,-50.22477 z"
           style="font-style:normal;font-variant:normal;font-weight:normal;font-stretch:normal;font-size:405.03848267px;font-family:Endor;-inkscape-font-specification:Endor;letter-spacing:9.49308968px;fill:url(#linearGradient4044);fill-opacity:1;stroke:#000000;stroke-width:8.76369886;stroke-miterlimit:4;stroke-dasharray:none;stroke-opacity:1"
           id="path4300" />
        <path
           d="m 10.345404,422.48238 0,-100.0445 q 0,-54.27516 -26.73254,-83.84297 -26.327502,-29.56781 -79.387543,-36.04842 -7.290691,-0.40504 -13.771311,-0.81008 -6.48061,-0.40504 -12.96123,0.40504 l -10.93604,0.40504 q 72.906929,2.02519 94.373969,79.38754 -5.670539,5.2655 -17.416655,13.77131 -11.746116,8.50581 -29.162771,20.25192 -8.910846,4.86046 -14.986423,8.10077 -5.67054,2.83527 -9.31589,4.86046 l -13.36627,8.10077 -2.43023,0.40504 0,104.90497 38.478659,41.71896 q 14.581386,-11.74611 28.757733,-21.87208 14.176346,-10.531 29.567809,-17.41665 13.771308,39.28873 55.490272,39.28873 Q 10.345404,481.618 10.345404,422.48238 Z m -42.93408,10.93604 q -4.455423,1.62016 -12.556192,4.45543 -7.695732,2.83527 -19.036809,7.69573 l -23.087194,-22.68216 0,-96.39916 q 10.125962,-4.86046 22.277117,-12.96123 12.556193,-8.50581 28.757732,-19.84688 1.620154,7.29069 2.430231,14.58138 1.215115,7.29069 1.215115,14.17635 l 0,110.98054 z"
           style="font-style:normal;font-variant:normal;font-weight:normal;font-stretch:normal;font-size:405.03848267px;font-family:Endor;-inkscape-font-specification:Endor;letter-spacing:9.49308968px;fill:url(#linearGradient4044);fill-opacity:1;stroke:#000000;stroke-width:8.76369886;stroke-miterlimit:4;stroke-dasharray:none;stroke-opacity:1"
           id="path4302" />
        <path
           d="m 197.04279,484.04823 0,-181.86228 -39.28873,-46.17438 -29.16277,25.92246 q -6.48062,5.2655 -14.58139,10.531 -7.69573,4.86046 -17.821691,9.31589 -12.961231,-36.45347 -52.655003,-37.66858 5.670539,2.02519 9.315885,10.12596 8.10077,18.22673 8.10077,48.19958 l 0,132.44758 q -14.581385,9.72093 -17.416655,10.12596 5.670539,0.40504 14.176347,2.83527 8.505808,2.43023 20.251924,6.88566 6.480616,2.83527 10.125962,4.45542 3.645347,1.62016 5.265501,2.02519 l 6.075577,2.83527 -0.405038,-68.04646 0,-25.51743 q 0,-3.2403 0,-6.48061 0,-3.64535 0.405038,-6.88566 l 0,-53.87011 q 0,-5.26551 -0.405038,-8.50581 0,-3.64535 -0.405039,-5.67054 8.10077,-1.62016 17.41665,-4.45542 9.72093,-2.83527 19.03681,-8.10077 l 22.68216,23.49223 0,164.04058 q 0,53.06004 -22.68216,57.92051 32.40308,-0.40504 48.19958,-20.25193 4.86046,-7.29069 8.10077,-14.98642 3.64535,-7.69573 4.45543,-15.7965 0.81007,-2.0252 0.81007,-3.64535 0.40504,-1.21511 0.40504,-3.24031 z"
           style="font-style:normal;font-variant:normal;font-weight:normal;font-stretch:normal;font-size:405.03848267px;font-family:Endor;-inkscape-font-specification:Endor;letter-spacing:9.49308968px;fill:url(#linearGradient4044);fill-opacity:1;stroke:#000000;stroke-width:8.76369886;stroke-miterlimit:4;stroke-dasharray:none;stroke-opacity:1"
           id="path4304" />
        <path
           d="m 510.16925,435.44361 0,-316.33505 q 0,-96.804197 -92.75381,-116.651083 -8.10077,-2.02519242 -14.58139,-2.83526939 -6.48062,-1.21511541 -10.531,-1.21511541 l -23.49223,0 q -25.11239,0 -55.89531,12.1511548 -18.63177,8.100769 -32.80812,21.872078 -14.17635,13.36627 -23.08719,33.213155 -4.45543,10.531001 -6.88566,23.897271 -2.43023,12.961229 -2.43023,29.567809 l 0,316.33505 q 0,101.66466 96.8042,120.70147 6.88565,2.0252 12.96123,2.43023 6.07558,0.40504 11.34108,0.40504 l 15.7965,0 q 1.21511,0 3.64534,0 2.83527,0 6.07558,-0.40504 23.49223,48.60462 22.68216,85.05809 -0.40504,16.20153 -6.07558,28.35269 -5.67054,12.55619 -17.41666,23.08719 54.27516,-40.90888 54.27516,-97.20923 0,-22.68216 -10.93604,-48.19958 73.31197,-26.3275 73.31197,-114.22086 z m -42.124,0 q 0,67.23639 -39.69378,98.42436 l -30.78292,-52.65501 q -16.60658,-27.54261 -18.63177,-47.79454 -0.40504,-4.45542 0,-8.10077 0.81008,-4.05038 3.64535,-6.88565 -27.13758,17.41665 -30.37789,43.33912 -1.21512,19.03681 6.48062,36.04842 2.02519,2.02519 2.43023,3.64535 0.40503,1.62015 0.40503,2.02519 l 27.13758,47.3895 q -4.05038,0.40504 -6.88565,0.40504 -2.43023,0 -4.45542,0 -45.76935,-0.40504 -68.04647,-42.52904 -10.12596,-17.01162 -14.58139,-32.40308 -4.45542,-15.39146 -4.45542,-29.97285 l 0,-336.58698 q 0,-13.771304 3.64535,-27.542612 3.64534,-14.176347 10.12596,-26.73254 6.88565,-12.961231 16.20154,-23.492232 9.31588,-10.531 21.062,-17.821693 7.29069,-4.050385 16.60658,-5.6705388 9.72092,-1.6201539 21.062,-1.6201539 48.19958,0 70.4767,39.2887327 18.22673,30.377886 18.22673,60.755777 l 0.40504,328.4862 z"
           style="font-style:normal;font-variant:normal;font-weight:normal;font-stretch:normal;font-size:405.03848267px;font-family:Endor;-inkscape-font-specification:Endor;letter-spacing:9.49308968px;fill:url(#linearGradient4044);fill-opacity:1;stroke:#000000;stroke-width:8.76369886;stroke-miterlimit:4;stroke-dasharray:none;stroke-opacity:1"
           id="path4306" />
        <path
           d="m 722.91568,497.81954 q -18.63177,-6.07558 -18.63177,-57.9205 l 0,-181.86228 -6.48062,2.83527 q -7.69573,3.24031 -17.01162,6.88565 -9.31588,3.24031 -20.25192,6.48062 -10.93604,3.64535 -17.82169,3.64535 l 5.67053,1.62015 q 3.64535,2.83527 13.77131,7.69573 l 0,154.31966 q -7.29069,1.21512 -16.60657,4.86046 -8.91085,3.24031 -19.84689,7.69574 l -25.92246,-28.3527 0,-164.04058 -5.67054,2.83527 q -6.88566,2.83526 -15.39146,6.48061 -8.50581,3.24031 -19.84689,7.69573 -4.45542,2.02519 -8.91085,2.43023 -4.05038,0.40504 -8.10077,0.40504 l 6.48062,2.43023 q 2.02519,0.81008 5.2655,2.43023 3.24031,1.62016 7.69573,4.86047 l 0,151.88943 38.47866,42.93408 q 29.97284,-25.92247 64.80615,-38.07362 13.36627,31.18796 36.85851,43.74415 8.91084,6.07558 21.46704,6.07558 z"
           style="font-style:normal;font-variant:normal;font-weight:normal;font-stretch:normal;font-size:405.03848267px;font-family:Endor;-inkscape-font-specification:Endor;letter-spacing:9.49308968px;fill:url(#linearGradient4044);fill-opacity:1;stroke:#000000;stroke-width:8.76369886;stroke-miterlimit:4;stroke-dasharray:none;stroke-opacity:1"
           id="path4308" />
        <path
           d="m 894.10772,403.44557 0,-101.25962 -38.07362,-41.71896 -12.15115,10.12596 q -8.10077,6.88566 -19.84689,13.36627 -11.34107,6.48062 -27.13757,12.5562 -10.12597,4.05038 -17.8217,6.48061 -7.69573,2.02519 -14.17635,2.83527 l -6.07557,0.40504 0,97.20923 q 0,95.99413 93.15885,115.84101 9.31588,2.02519 19.03681,2.83527 -44.55424,-6.07558 -61.97089,-64.40112 8.91085,-6.88565 21.062,-14.98642 12.55619,-8.50581 28.75773,-17.8217 12.5562,-7.29069 21.46704,-12.55619 8.91085,-5.67054 13.77131,-8.91085 z m -42.124,12.15116 q -7.69573,4.05038 -19.03681,11.34108 -11.34108,7.29069 -26.73254,17.82169 -4.45542,-19.03681 -4.45542,-29.16277 l -0.81008,-112.19566 28.35269,-9.72092 22.68216,26.3275 0,95.58908 z"
           style="font-style:normal;font-variant:normal;font-weight:normal;font-stretch:normal;font-size:405.03848267px;font-family:Endor;-inkscape-font-specification:Endor;letter-spacing:9.49308968px;fill:url(#linearGradient4044);fill-opacity:1;stroke:#000000;stroke-width:8.76369886;stroke-miterlimit:4;stroke-dasharray:none;stroke-opacity:1"
           id="path4310" />
        <path
           d="m 1081.1343,462.58119 0,-87.89335 -38.8837,-34.83331 -38.4787,31.99804 -23.08718,-19.44184 0,-53.06005 43.33908,0 q 35.2384,0 49.8198,9.31589 5.6705,4.05038 7.2907,9.72092 -2.8353,-18.22673 -10.9361,-31.18796 -8.1007,-12.96123 -21.062,-20.65696 -10.531,-6.07558 -25.1124,-9.72093 l -23.4922,0 q -3.2403,5.67054 -7.29068,10.12597 -4.05039,4.05038 -9.72093,7.29069 -5.67054,2.02519 -10.93604,3.24031 -4.86046,1.21511 -9.31588,1.62015 -5.67054,0 -10.93604,-0.40504 -5.2655,-0.40504 -10.93604,-2.43023 l 0,90.32358 39.28873,34.42827 36.45348,-29.16277 25.1124,18.63177 0,52.65501 -41.719,0 q -53.87011,0 -59.13561,-17.8217 6.07558,35.23835 32.80812,51.43989 5.2655,3.24031 11.74611,5.2655 6.88566,2.02519 14.58138,4.05039 l 23.4922,0 1.6202,-4.86047 q 12.5562,-19.44184 40.5038,-19.44184 3.2404,0 7.2907,0 4.0504,0 7.6958,0.81007 z"
           style="font-style:normal;font-variant:normal;font-weight:normal;font-stretch:normal;font-size:405.03848267px;font-family:Endor;-inkscape-font-specification:Endor;letter-spacing:9.49308968px;fill:url(#linearGradient4044);fill-opacity:1;stroke:#000000;stroke-width:8.76369886;stroke-miterlimit:4;stroke-dasharray:none;stroke-opacity:1"
           id="path4312" />
        <path
           d="m 1247.1558,243.45537 q -2.4303,9.31589 -18.2268,13.77131 -15.7965,4.45543 -43.3391,5.2655 l -11.7461,-0.81007 0,-47.79455 q 0,-28.75773 4.4554,-43.74415 4.8605,-15.39146 13.7713,-18.63177 -7.2907,0.81008 -14.1763,4.05038 -6.4806,2.83527 -12.5562,8.91085 -22.6822,-59.13562 -98.8294,-69.666619 21.062,3.645346 38.4786,22.682159 14.9865,16.60657 22.2772,38.88369 7.2907,21.87208 7.2907,49.4147 l 0.81,201.70916 q 0,31.99804 -40.0988,40.09881 -5.6705,0.81008 -9.3159,1.62015 -3.6453,0.81008 -6.8856,0.81008 l -6.0756,0.40504 q 51.8449,2.43023 81.0077,20.65696 5.2655,3.24031 10.126,7.69573 5.2655,4.45543 9.7209,10.12596 l 0,-184.69754 11.7461,0 q 4.0504,0 8.9109,-1.21512 5.2655,-1.21511 12.1511,-2.43023 40.0988,-13.36627 40.5039,-57.11043 z"
           style="font-style:normal;font-variant:normal;font-weight:normal;font-stretch:normal;font-size:405.03848267px;font-family:Endor;-inkscape-font-specification:Endor;letter-spacing:9.49308968px;fill:url(#linearGradient4044);fill-opacity:1;stroke:#000000;stroke-width:8.76369886;stroke-miterlimit:4;stroke-dasharray:none;stroke-opacity:1"
           id="path4314" />
      </g>
    </g>
  </g>
</svg>
