<?xml version="1.0" encoding="UTF-8" standalone="no"?>
<!-- Created with Inkscape (http://www.inkscape.org/) -->

<svg
   xmlns:dc="http://purl.org/dc/elements/1.1/"
   xmlns:cc="http://creativecommons.org/ns#"
   xmlns:rdf="http://www.w3.org/1999/02/22-rdf-syntax-ns#"
   xmlns:svg="http://www.w3.org/2000/svg"
   xmlns="http://www.w3.org/2000/svg"
   xmlns:sodipodi="http://sodipodi.sourceforge.net/DTD/sodipodi-0.dtd"
   xmlns:inkscape="http://www.inkscape.org/namespaces/inkscape"
   width="284.32916mm"
   height="96.240112mm"
   viewBox="0 0 1007.4655 341.00827"
   id="svg4313"
   version="1.1"
   inkscape:version="0.91 r"
   sodipodi:docname="logo-wireframe-white.svg">
  <defs
     id="defs4315" />
  <sodipodi:namedview
     id="base"
     pagecolor="#000000"
     bordercolor="#666666"
     borderopacity="1.0"
     inkscape:pageopacity="0"
     inkscape:pageshadow="2"
     inkscape:zoom="0.35"
     inkscape:cx="94.447036"
     inkscape:cy="384.78989"
     inkscape:document-units="px"
     inkscape:current-layer="layer1"
     showgrid="false"
     fit-margin-top="0"
     fit-margin-left="0"
     fit-margin-right="0"
     fit-margin-bottom="0" />
  <metadata
     id="metadata4318">
    <rdf:RDF>
      <cc:Work
         rdf:about="">
        <dc:format>image/svg+xml</dc:format>
        <dc:type
           rdf:resource="http://purl.org/dc/dcmitype/StillImage" />
        <dc:title></dc:title>
      </cc:Work>
    </rdf:RDF>
  </metadata>
  <g
     inkscape:label="Layer 1"
     inkscape:groupmode="layer"
     id="layer1"
     transform="translate(178.01846,-576.14381)">
    <g
       id="g4267"
       transform="matrix(6.5039021,0,0,6.5039021,-275.09335,-5820.9429)">
      <path
         vector-effect="non-scaling-stroke"
         style="opacity:1;fill:none;fill-opacity:1;stroke:#ffffff;stroke-width:0.80000001;stroke-miterlimit:4;stroke-dasharray:none;stroke-opacity:1"
         d="m 32.205669,983.99342 c -0.279803,0.0248 -0.53564,0.0785 -0.762429,0.16389 -3.628621,1.37314 -7.190988,13.75849 -8.785947,17.29539 -1.594856,3.537 -8.518557,14.4082 -7.14553,18.037 1.373124,3.6288 13.757939,7.1913 17.294627,8.7863 3.536796,1.595 14.407432,8.5191 18.036077,7.1459 3.628628,-1.3732 7.191073,-13.7585 8.785929,-17.2955 1.594977,-3.5369 8.518696,-14.4081 7.145554,-18.0369 -1.373123,-3.6288 -13.757842,-7.19131 -17.29465,-8.78637 -3.315654,-1.49529 -13.07656,-7.67472 -17.273631,-7.30971 z m 2.266328,8.53217 c 0.408711,0.0388 1.190798,0.52826 1.468185,0.6534 0.317,0.1429 1.427019,0.46243 1.550092,0.78764 0.123073,0.32528 -0.497656,1.30022 -0.64064,1.61736 -0.142936,0.31692 -0.462394,1.42711 -0.787638,1.55011 -0.32522,0.1231 -1.300281,-0.4977 -1.617299,-0.6406 -0.316999,-0.1431 -1.427012,-0.4625 -1.550085,-0.78765 -0.123073,-0.32536 0.497673,-1.29828 0.640615,-1.61535 0.142955,-0.31714 0.462413,-1.42715 0.787657,-1.55013 0.04068,-0.0149 0.09073,-0.0149 0.149113,-0.0149 z m -4.423413,7.62911 c 0.408686,0.039 1.188689,0.5281 1.466076,0.6532 0.316999,0.1429 1.427013,0.4623 1.550085,0.7877 0.123073,0.3252 -0.497655,1.3004 -0.640615,1.6173 -0.142961,0.3171 -0.462431,1.427 -0.787656,1.5502 -0.325226,0.123 -1.298191,-0.4977 -1.615208,-0.6407 -0.317,-0.1429 -1.426995,-0.4623 -1.550092,-0.7876 -0.123048,-0.3252 0.49768,-1.2983 0.640616,-1.6152 0.142985,-0.3171 0.462419,-1.4272 0.787662,-1.5502 0.04068,-0.015 0.09073,-0.015 0.149132,-0.015 z m 8.086506,0.1533 c 0.408693,0.037 1.188707,0.5281 1.466076,0.6533 0.317,0.1429 1.427013,0.4624 1.550086,0.7876 0.123079,0.3254 -0.497656,1.3003 -0.64061,1.6174 -0.14296,0.3171 -0.462419,1.4271 -0.787662,1.5502 -0.32522,0.1229 -1.29819,-0.4978 -1.61519,-0.6407 -0.316993,-0.143 -1.42703,-0.4625 -1.550103,-0.7877 -0.123055,-0.3253 0.497673,-1.3004 0.640634,-1.6173 0.14296,-0.3171 0.462412,-1.4272 0.787638,-1.5502 0.04068,-0.012 0.09075,-0.013 0.149131,-0.013 z m 17.544575,1.2203 c 0.408711,0.039 1.190805,0.5282 1.468168,0.6533 0.317017,0.143 1.427018,0.4625 1.550109,0.7878 0.123073,0.3252 -0.497673,1.3002 -0.640634,1.6173 -0.142942,0.3169 -0.462394,1.4271 -0.787638,1.5501 -0.325243,0.1231 -1.300305,-0.4975 -1.617305,-0.6406 -0.316993,-0.1429 -1.427012,-0.4624 -1.550103,-0.7876 -0.123055,-0.3253 0.497698,-1.3005 0.640634,-1.6175 0.14296,-0.317 0.462412,-1.427 0.787638,-1.5502 0.04068,-0.012 0.09076,-0.013 0.149131,-0.013 z m -17.393346,5.9507 c 0.40871,0.039 1.190798,0.5282 1.468167,0.6532 0.317018,0.1431 1.427013,0.4625 1.55011,0.7878 0.123073,0.3252 -0.49768,1.3004 -0.64064,1.6174 -0.142936,0.3169 -0.462395,1.4271 -0.787638,1.5502 -0.325244,0.1231 -1.3003,-0.4977 -1.617299,-0.6407 -0.316999,-0.1429 -1.427013,-0.4625 -1.550085,-0.7876 -0.123073,-0.3254 0.497655,-1.3005 0.640615,-1.6174 0.142955,-0.3172 0.462413,-1.4272 0.787638,-1.5503 0.04068,-0.012 0.09075,-0.013 0.149132,-0.013 z m -11.13629,1.0671 c 0.408711,0.037 1.188713,0.5304 1.466076,0.6553 0.317018,0.1431 1.427013,0.4625 1.550092,0.7877 0.123073,0.3254 -0.497662,1.2983 -0.640616,1.6154 -0.142942,0.317 -0.462418,1.4271 -0.787638,1.5501 -0.325244,0.1231 -1.298196,-0.4977 -1.615214,-0.6406 -0.316993,-0.1432 -1.427012,-0.4626 -1.550085,-0.7878 -0.123073,-0.3252 0.495564,-1.2982 0.638506,-1.6152 0.142979,-0.3172 0.462431,-1.4271 0.787657,-1.5502 0.04068,-0.015 0.09284,-0.015 0.151222,-0.015 z m 25.021972,0.4579 c 0.408711,0.038 1.188713,0.5302 1.466101,0.6554 0.316993,0.1429 1.426988,0.4623 1.550067,0.7876 0.123091,0.3252 -0.497661,1.2984 -0.640616,1.6153 -0.142942,0.317 -0.462418,1.4271 -0.787638,1.5503 -0.325243,0.1231 -1.298196,-0.4977 -1.615214,-0.6408 -0.316993,-0.1429 -1.427012,-0.4624 -1.550085,-0.7877 -0.123055,-0.3253 0.495564,-1.2983 0.638525,-1.6152 0.14296,-0.317 0.462412,-1.427 0.787638,-1.5501 0.04068,-0.015 0.09285,-0.015 0.151222,-0.015 z m -29.447494,6.8666 c 0.408704,0.039 1.188707,0.528 1.466076,0.6532 0.316993,0.1429 1.427013,0.4623 1.550085,0.7877 0.123073,0.3252 -0.495564,1.3004 -0.638524,1.6173 -0.142936,0.3171 -0.462395,1.427 -0.787638,1.5501 -0.325244,0.1231 -1.300306,-0.4976 -1.617299,-0.6406 -0.316999,-0.1429 -1.427012,-0.4623 -1.550085,-0.7876 -0.123079,-0.3254 0.497655,-1.3004 0.640609,-1.6174 0.142961,-0.317 0.462419,-1.427 0.787638,-1.5501 0.04068,-0.012 0.09076,-0.013 0.149138,-0.013 z m 16.935466,0 c 0.408704,0.039 1.190798,0.528 1.468167,0.6532 0.317018,0.1429 1.427031,0.4623 1.55011,0.7877 0.123073,0.3252 -0.49768,1.3004 -0.640616,1.6173 -0.142961,0.3171 -0.462419,1.427 -0.787662,1.5501 -0.325244,0.1231 -1.300282,-0.4976 -1.617299,-0.6406 -0.317,-0.1429 -1.427013,-0.4623 -1.550086,-0.7876 -0.123079,-0.3254 0.497674,-1.3004 0.64061,-1.6174 0.142961,-0.317 0.462419,-1.427 0.787662,-1.5501 0.04068,-0.012 0.09073,-0.013 0.149114,-0.013 z m 8.848953,0.9157 c 0.408693,0.039 1.190805,0.5283 1.468168,0.6533 0.317017,0.1431 1.427018,0.4624 1.550109,0.7877 0.123073,0.3251 -0.497673,1.3004 -0.640634,1.6173 -0.142942,0.317 -0.462394,1.4272 -0.787638,1.5502 -0.325243,0.1232 -1.300305,-0.4977 -1.617305,-0.6406 -0.316993,-0.143 -1.427012,-0.4626 -1.550103,-0.7877 -0.123055,-0.3254 0.497698,-1.3005 0.640634,-1.6175 0.14296,-0.317 0.462394,-1.427 0.787638,-1.5501 0.04068,-0.012 0.09076,-0.013 0.149131,-0.013 z m -6.406194,7.0178 c 0.40871,0.038 1.188707,0.5303 1.466076,0.6553 0.316999,0.143 1.427013,0.4624 1.550086,0.7877 0.123072,0.3252 -0.497656,1.2983 -0.640616,1.6153 -0.142961,0.317 -0.462413,1.4272 -0.787656,1.5502 -0.325226,0.1231 -1.300282,-0.4977 -1.617299,-0.6407 -0.317,-0.1428 -1.427019,-0.4625 -1.550092,-0.7877 -0.123049,-0.3253 0.49768,-1.2982 0.640616,-1.6153 0.14296,-0.317 0.462413,-1.427 0.787656,-1.5501 0.04068,-0.015 0.09285,-0.015 0.151229,-0.015 z"
         id="path4168"
         inkscape:connector-curvature="0">
        <desc
           id="desc4235">Netsyms wireframe logo</desc>
      </path>
      <g
         style="font-style:normal;font-weight:normal;font-size:16.29381943px;line-height:100%;font-family:sans-serif;letter-spacing:0px;word-spacing:0px;fill:#ffffff;fill-opacity:1;stroke:none;stroke-width:1px;stroke-linecap:butt;stroke-linejoin:miter;stroke-opacity:1"
         id="text5651">
        <path
           d="m 84.223945,1005.7596 q -0.309583,-0.5703 -0.798397,-1.3361 -0.472521,-0.7658 -1.042805,-1.6294 -0.570284,-0.8799 -1.205742,-1.7923 -0.635459,-0.9288 -1.270918,-1.79233 -0.619166,-0.87987 -1.222037,-1.64568 -0.586577,-0.76581 -1.059098,-1.3198 l 0,9.51561 -1.091686,0 0,-11.29163 0.879866,0 q 0.830985,0.92874 1.776027,2.15078 0.961335,1.20574 1.873789,2.47666 0.912454,1.25459 1.694557,2.46039 0.798397,1.2057 1.303506,2.1019 l 0,-9.18973 1.091685,0 0,11.29163 -0.928747,0 z"
           style="font-style:normal;font-variant:normal;font-weight:300;font-stretch:normal;line-height:100%;font-family:Ubuntu;-inkscape-font-specification:'Ubuntu Light';fill:#ffffff;fill-opacity:1"
           id="path5442"
           inkscape:connector-curvature="0" />
        <path
           d="m 87.515041,1001.5395 q 0,-1.108 0.309583,-1.92269 0.325876,-0.83098 0.830985,-1.38497 0.521402,-0.55399 1.173155,-0.81469 0.668046,-0.277 1.36868,-0.277 1.547913,0 2.460367,1.01022 0.928748,1.01022 0.928748,3.11213 0,0.1303 -0.01629,0.2607 0,0.1303 -0.01629,0.2444 l -5.914656,0 q 0.04888,1.5479 0.765809,2.3789 0.716928,0.831 2.281135,0.831 0.863572,0 1.368681,-0.163 0.505108,-0.1629 0.733222,-0.277 l 0.195526,0.9125 q -0.228114,0.1304 -0.863573,0.3096 -0.619165,0.1792 -1.466444,0.1792 -1.107979,0 -1.890083,-0.3259 -0.782103,-0.3258 -1.287211,-0.9124 -0.505109,-0.5866 -0.733222,-1.385 -0.228114,-0.8147 -0.228114,-1.776 z m 5.979832,-0.6681 q -0.03259,-1.31976 -0.619165,-2.05298 -0.586578,-0.73323 -1.66197,-0.73323 -0.570283,0 -1.02651,0.22812 -0.439933,0.22811 -0.782104,0.61916 -0.325876,0.37476 -0.521402,0.87987 -0.179232,0.50506 -0.21182,1.05906 l 4.822971,0 z"
           style="font-style:normal;font-variant:normal;font-weight:300;font-stretch:normal;line-height:100%;font-family:Ubuntu;-inkscape-font-specification:'Ubuntu Light';fill:#ffffff;fill-opacity:1"
           id="path5444"
           inkscape:connector-curvature="0" />
        <path
           d="m 97.956579,997.33568 3.356531,0 0,0.89616 -3.356531,0 0,4.48076 q 0,0.717 0.114057,1.1732 0.130351,0.4399 0.358464,0.6843 0.228114,0.2444 0.55399,0.3259 0.325876,0.082 0.716928,0.082 0.668042,0 1.075392,-0.1467 0.40735,-0.1629 0.63546,-0.2933 l 0.2607,0.8799 q -0.22811,0.1467 -0.7984,0.3422 -0.57028,0.1792 -1.238327,0.1792 -0.782103,0 -1.3198,-0.1955 -0.521402,-0.2118 -0.847278,-0.6192 -0.309583,-0.4236 -0.439933,-1.0428 -0.130351,-0.6191 -0.130351,-1.4664 l 0,-7.75588 1.059098,-0.19553 0,2.67219 z"
           style="font-style:normal;font-variant:normal;font-weight:300;font-stretch:normal;line-height:100%;font-family:Ubuntu;-inkscape-font-specification:'Ubuntu Light';fill:#ffffff;fill-opacity:1"
           id="path5446"
           inkscape:connector-curvature="0" />
        <path
           d="m 104.99093,1005.0101 q 0.91245,0 1.49903,-0.2933 0.60287,-0.3096 0.60287,-1.0265 0,-0.3422 -0.11406,-0.5866 -0.0978,-0.2444 -0.34217,-0.4399 -0.2444,-0.1956 -0.65175,-0.3748 -0.39105,-0.1792 -0.97763,-0.4236 -0.47252,-0.1956 -0.89616,-0.3911 -0.42364,-0.2118 -0.74951,-0.4725 -0.32588,-0.277 -0.52141,-0.6518 -0.19552,-0.37472 -0.19552,-0.91242 0,-1.02651 0.76581,-1.66197 0.7821,-0.63546 2.13449,-0.63546 0.86357,0 1.41756,0.14665 0.57028,0.14664 0.7984,0.2607 l -0.24441,0.94504 q -0.19553,-0.0978 -0.66805,-0.2607 -0.45622,-0.16294 -1.35238,-0.16294 -0.35847,0 -0.68434,0.0815 -0.30959,0.0652 -0.55399,0.22811 -0.24441,0.14665 -0.39106,0.39105 -0.14664,0.22812 -0.14664,0.57029 0,0.34217 0.13035,0.58658 0.13035,0.24437 0.37476,0.43987 0.2607,0.1793 0.61916,0.3422 0.37476,0.1629 0.84728,0.3585 0.48882,0.1955 0.92875,0.4073 0.45623,0.1955 0.7984,0.4888 0.34217,0.277 0.55399,0.6844 0.21182,0.391 0.21182,0.9939 0,1.1406 -0.86358,1.7271 -0.84727,0.5866 -2.33001,0.5866 -1.10798,0 -1.69456,-0.1955 -0.58658,-0.1792 -0.7821,-0.277 l 0.27699,-0.9613 q 0.0489,0.033 0.21182,0.114 0.16294,0.065 0.43993,0.1629 0.277,0.082 0.65176,0.1467 0.39105,0.065 0.89616,0.065 z"
           style="font-style:normal;font-variant:normal;font-weight:300;font-stretch:normal;line-height:100%;font-family:Ubuntu;-inkscape-font-specification:'Ubuntu Light';fill:#ffffff;fill-opacity:1"
           id="path5448"
           inkscape:connector-curvature="0" />
        <path
           d="m 112.53064,1005.9388 q -0.5377,-0.9939 -1.04281,-2.0693 -0.48881,-1.0754 -0.92875,-2.1671 -0.42363,-1.108 -0.7821,-2.19964 -0.35846,-1.10798 -0.61916,-2.16708 l 1.12427,0 q 0.17923,0.7821 0.45623,1.69456 0.27699,0.89616 0.61916,1.85746 0.35847,0.9614 0.78211,1.9716 0.42363,1.0102 0.91245,1.9878 0.35846,-1.0102 0.63546,-1.9063 0.27699,-0.8962 0.50511,-1.7761 0.2444,-0.8961 0.45622,-1.82488 0.22812,-0.92875 0.47252,-2.00414 l 1.0591,0 q -0.5214,2.3626 -1.18945,4.59482 -0.66804,2.2323 -1.45015,4.0898 -0.30958,0.7332 -0.63546,1.2546 -0.32587,0.5377 -0.73322,0.8799 -0.39105,0.3421 -0.92875,0.5051 -0.5214,0.1629 -1.23833,0.1629 -0.40734,0 -0.74951,-0.098 -0.32588,-0.098 -0.40735,-0.1467 l 0.21182,-0.8799 q 0.0652,0.049 0.35847,0.1304 0.30958,0.098 0.63546,0.098 0.45622,0 0.81469,-0.098 0.37475,-0.098 0.66804,-0.3422 0.29329,-0.2281 0.52141,-0.6028 0.2444,-0.3748 0.47252,-0.9451 z"
           style="font-style:normal;font-variant:normal;font-weight:300;font-stretch:normal;line-height:100%;font-family:Ubuntu;-inkscape-font-specification:'Ubuntu Light';fill:#ffffff;fill-opacity:1"
           id="path5450"
           inkscape:connector-curvature="0" />
        <path
           d="m 117.96641,997.62897 q 0.47252,-0.13035 1.22203,-0.29329 0.76581,-0.16294 1.97156,-0.16294 1.59679,0 2.31372,0.92875 0.0815,-0.0652 0.30958,-0.21182 0.24441,-0.16294 0.60287,-0.32588 0.35847,-0.16294 0.83099,-0.27699 0.48881,-0.11406 1.07539,-0.11406 0.96134,0 1.54791,0.29329 0.60287,0.27699 0.92875,0.7984 0.32588,0.5051 0.43993,1.22203 0.11406,0.71694 0.11406,1.56424 l 0,4.7089 -1.0591,0 0,-4.3668 q 0,-0.8309 -0.0815,-1.43382 -0.0652,-0.61916 -0.29329,-1.01021 -0.21182,-0.40735 -0.61916,-0.60288 -0.40735,-0.21181 -1.0591,-0.21181 -0.48881,0 -0.89616,0.0978 -0.39105,0.0815 -0.68434,0.21182 -0.29329,0.13035 -0.48881,0.2607 -0.17924,0.13035 -0.26071,0.19552 0.14665,0.42364 0.21182,0.96134 0.0815,0.52134 0.0815,1.10794 l 0,4.7904 -1.05909,0 0,-4.3668 q 0,-0.8309 -0.0815,-1.43378 -0.0652,-0.61916 -0.29329,-1.01021 -0.22812,-0.40735 -0.65176,-0.60288 -0.40734,-0.21181 -1.09168,-0.21181 -0.76581,0 -1.30351,0.0815 -0.5214,0.0815 -0.66804,0.14665 l 0,7.39743 -1.0591,0 0,-8.13065 z"
           style="font-style:normal;font-variant:normal;font-weight:300;font-stretch:normal;line-height:100%;font-family:Ubuntu;-inkscape-font-specification:'Ubuntu Light';fill:#ffffff;fill-opacity:1"
           id="path5452"
           inkscape:connector-curvature="0" />
        <path
           d="m 133.7597,1005.0101 q 0.91245,0 1.49903,-0.2933 0.60287,-0.3096 0.60287,-1.0265 0,-0.3422 -0.11405,-0.5866 -0.0978,-0.2444 -0.34217,-0.4399 -0.24441,-0.1956 -0.65176,-0.3748 -0.39105,-0.1792 -0.97763,-0.4236 -0.47252,-0.1956 -0.89616,-0.3911 -0.42364,-0.2118 -0.74951,-0.4725 -0.32588,-0.277 -0.5214,-0.6518 -0.19553,-0.37472 -0.19553,-0.91242 0,-1.02651 0.76581,-1.66197 0.7821,-0.63546 2.13449,-0.63546 0.86357,0 1.41756,0.14665 0.57029,0.14664 0.7984,0.2607 l -0.24441,0.94504 q -0.19552,-0.0978 -0.66804,-0.2607 -0.45623,-0.16294 -1.35239,-0.16294 -0.35847,0 -0.68434,0.0815 -0.30958,0.0652 -0.55399,0.22811 -0.24441,0.14665 -0.39105,0.39105 -0.14665,0.22812 -0.14665,0.57029 0,0.34217 0.13035,0.58658 0.13035,0.24437 0.37476,0.43987 0.2607,0.1793 0.61917,0.3422 0.37475,0.1629 0.84727,0.3585 0.48882,0.1955 0.92875,0.4073 0.45623,0.1955 0.7984,0.4888 0.34217,0.277 0.55399,0.6844 0.21182,0.391 0.21182,0.9939 0,1.1406 -0.86357,1.7271 -0.84728,0.5866 -2.33002,0.5866 -1.10798,0 -1.69456,-0.1955 -0.58657,-0.1792 -0.7821,-0.277 l 0.27699,-0.9613 q 0.0489,0.033 0.21182,0.114 0.16294,0.065 0.43994,0.1629 0.27699,0.082 0.65175,0.1467 0.39105,0.065 0.89616,0.065 z"
           style="font-style:normal;font-variant:normal;font-weight:300;font-stretch:normal;line-height:100%;font-family:Ubuntu;-inkscape-font-specification:'Ubuntu Light';fill:#ffffff;fill-opacity:1"
           id="path5454"
           inkscape:connector-curvature="0" />
        <path
           d="m 83.702543,1010.7618 0,0.9613 -3.617228,0 0,10.3303 -1.10798,0 0,-10.3303 -3.617228,0 0,-0.9613 8.342436,0 z"
           style="font-style:normal;font-variant:normal;font-weight:300;font-stretch:normal;line-height:100%;font-family:Ubuntu;-inkscape-font-specification:'Ubuntu Light';fill:#ffffff;fill-opacity:1"
           id="path5456"
           inkscape:connector-curvature="0" />
        <path
           d="m 84.173535,1017.8333 q 0,-1.108 0.309583,-1.9227 0.325876,-0.831 0.830985,-1.3849 0.521402,-0.554 1.173155,-0.8147 0.668046,-0.277 1.36868,-0.277 1.547913,0 2.460367,1.0102 0.928748,1.0102 0.928748,3.1121 0,0.1304 -0.01629,0.2607 0,0.1304 -0.01629,0.2444 l -5.914656,0 q 0.04888,1.5479 0.765809,2.3789 0.716928,0.831 2.281135,0.831 0.863572,0 1.368681,-0.1629 0.505108,-0.163 0.733222,-0.277 l 0.195526,0.9124 q -0.228114,0.1304 -0.863573,0.3096 -0.619165,0.1792 -1.466444,0.1792 -1.107979,0 -1.890083,-0.3258 -0.782103,-0.3259 -1.287211,-0.9125 -0.505109,-0.5866 -0.733222,-1.385 -0.228114,-0.8147 -0.228114,-1.776 z m 5.979832,-0.668 q -0.03259,-1.3198 -0.619165,-2.0531 -0.586578,-0.7332 -1.66197,-0.7332 -0.570283,0 -1.02651,0.2281 -0.439933,0.2281 -0.782104,0.6192 -0.325876,0.3747 -0.521402,0.8799 -0.179232,0.5051 -0.21182,1.0591 l 4.822971,0 z"
           style="font-style:normal;font-variant:normal;font-weight:300;font-stretch:normal;line-height:100%;font-family:Ubuntu;-inkscape-font-specification:'Ubuntu Light';fill:#ffffff;fill-opacity:1"
           id="path5458"
           inkscape:connector-curvature="0" />
        <path
           d="m 97.108029,1022.2326 q -0.977629,0 -1.727145,-0.3095 -0.749516,-0.3096 -1.254624,-0.8799 -0.488815,-0.5866 -0.749516,-1.385 -0.260701,-0.8147 -0.260701,-1.7923 0,-0.9939 0.260701,-1.8086 0.276995,-0.8147 0.782103,-1.4013 0.505109,-0.5866 1.222037,-0.8962 0.716928,-0.3258 1.613088,-0.3258 0.68434,0 1.270918,0.114 0.602871,0.1141 0.928748,0.2933 l -0.276995,0.9125 q -0.325877,-0.163 -0.733222,-0.2607 -0.407346,-0.098 -1.091686,-0.098 -1.401268,0 -2.13449,0.9125 -0.716928,0.8961 -0.716928,2.5581 0,0.7495 0.162938,1.385 0.162938,0.6191 0.521402,1.0754 0.374758,0.4399 0.945042,0.7006 0.586577,0.2444 1.417562,0.2444 0.68434,0 1.140567,-0.1466 0.472521,-0.163 0.684341,-0.277 l 0.228113,0.9124 q -0.293289,0.163 -0.928748,0.3096 -0.619165,0.1629 -1.303505,0.1629 z"
           style="font-style:normal;font-variant:normal;font-weight:300;font-stretch:normal;line-height:100%;font-family:Ubuntu;-inkscape-font-specification:'Ubuntu Light';fill:#ffffff;fill-opacity:1"
           id="path5460"
           inkscape:connector-curvature="0" />
        <path
           d="m 101.13158,1022.0534 0,-12.4485 1.0591,-0.1955 0,4.4645 q 0.5214,-0.1955 1.0591,-0.2933 0.5377,-0.114 1.07539,-0.114 0.97763,0 1.62938,0.277 0.65176,0.2769 1.04281,0.7984 0.39105,0.5051 0.53769,1.222 0.16294,0.7169 0.16294,1.5805 l 0,4.7089 -1.0591,0 0,-4.3667 q 0,-0.8962 -0.13035,-1.5154 -0.11405,-0.6191 -0.40734,-1.0102 -0.277,-0.391 -0.74952,-0.554 -0.47252,-0.1792 -1.18945,-0.1792 -0.27699,0 -0.60287,0.049 -0.30958,0.049 -0.58658,0.114 -0.27699,0.049 -0.5051,0.1141 -0.21182,0.065 -0.277,0.098 l 0,7.2507 -1.0591,0 z"
           style="font-style:normal;font-variant:normal;font-weight:300;font-stretch:normal;line-height:100%;font-family:Ubuntu;-inkscape-font-specification:'Ubuntu Light';fill:#ffffff;fill-opacity:1"
           id="path5462"
           inkscape:connector-curvature="0" />
        <path
           d="m 110.39233,1013.9228 q 0.47252,-0.1304 1.27091,-0.2933 0.7984,-0.1629 1.95526,-0.1629 0.96134,0 1.5968,0.277 0.65175,0.2769 1.02651,0.7984 0.39105,0.5051 0.55399,1.222 0.16294,0.7169 0.16294,1.5805 l 0,4.7089 -1.0591,0 0,-4.3667 q 0,-0.8962 -0.13035,-1.5154 -0.11406,-0.6191 -0.40735,-1.0102 -0.27699,-0.391 -0.74951,-0.554 -0.45623,-0.1792 -1.15687,-0.1792 -0.74951,0 -1.3035,0.082 -0.5377,0.081 -0.70063,0.1466 l 0,7.3974 -1.0591,0 0,-8.1306 z"
           style="font-style:normal;font-variant:normal;font-weight:300;font-stretch:normal;line-height:100%;font-family:Ubuntu;-inkscape-font-specification:'Ubuntu Light';fill:#ffffff;fill-opacity:1"
           id="path5464"
           inkscape:connector-curvature="0" />
        <path
           d="m 126.83865,1017.8496 q 0,0.9939 -0.29329,1.8086 -0.277,0.8147 -0.7984,1.385 -0.50511,0.5703 -1.20574,0.8961 -0.70064,0.3096 -1.54791,0.3096 -0.84728,0 -1.54792,-0.3096 -0.70063,-0.3258 -1.22203,-0.8961 -0.50511,-0.5703 -0.7984,-1.385 -0.277,-0.8147 -0.277,-1.8086 0,-0.9939 0.277,-1.8086 0.29329,-0.8147 0.7984,-1.385 0.5214,-0.5866 1.22203,-0.8962 0.70064,-0.3258 1.54792,-0.3258 0.84727,0 1.54791,0.3258 0.70063,0.3096 1.20574,0.8962 0.5214,0.5703 0.7984,1.385 0.29329,0.8147 0.29329,1.8086 z m -1.12428,0 q 0,-1.5805 -0.73322,-2.5093 -0.73322,-0.945 -1.98784,-0.945 -1.25463,0 -1.98785,0.945 -0.73322,0.9288 -0.73322,2.5093 0,1.5805 0.73322,2.5092 0.73322,0.9288 1.98785,0.9288 1.25462,0 1.98784,-0.9288 0.73322,-0.9287 0.73322,-2.5092 z"
           style="font-style:normal;font-variant:normal;font-weight:300;font-stretch:normal;line-height:100%;font-family:Ubuntu;-inkscape-font-specification:'Ubuntu Light';fill:#ffffff;fill-opacity:1"
           id="path5466"
           inkscape:connector-curvature="0" />
        <path
           d="m 131.27108,1022.2 q -0.5377,-0.016 -0.94505,-0.1466 -0.39105,-0.1141 -0.66804,-0.3585 -0.2607,-0.2607 -0.40735,-0.6517 -0.13035,-0.4074 -0.13035,-1.0102 l 0,-10.4281 1.0591,-0.1955 0,10.591 q 0,0.391 0.0652,0.6354 0.0815,0.2282 0.22811,0.3748 0.14664,0.1303 0.37476,0.1955 0.2444,0.065 0.57028,0.1141 l -0.14664,0.8798 z"
           style="font-style:normal;font-variant:normal;font-weight:300;font-stretch:normal;line-height:100%;font-family:Ubuntu;-inkscape-font-specification:'Ubuntu Light';fill:#ffffff;fill-opacity:1"
           id="path5468"
           inkscape:connector-curvature="0" />
        <path
           d="m 140.49109,1017.8496 q 0,0.9939 -0.29329,1.8086 -0.277,0.8147 -0.7984,1.385 -0.50511,0.5703 -1.20574,0.8961 -0.70064,0.3096 -1.54792,0.3096 -0.84727,0 -1.54791,-0.3096 -0.70063,-0.3258 -1.22203,-0.8961 -0.50511,-0.5703 -0.7984,-1.385 -0.277,-0.8147 -0.277,-1.8086 0,-0.9939 0.277,-1.8086 0.29329,-0.8147 0.7984,-1.385 0.5214,-0.5866 1.22203,-0.8962 0.70064,-0.3258 1.54791,-0.3258 0.84728,0 1.54792,0.3258 0.70063,0.3096 1.20574,0.8962 0.5214,0.5703 0.7984,1.385 0.29329,0.8147 0.29329,1.8086 z m -1.12428,0 q 0,-1.5805 -0.73322,-2.5093 -0.73322,-0.945 -1.98785,-0.945 -1.25462,0 -1.98784,0.945 -0.73322,0.9288 -0.73322,2.5093 0,1.5805 0.73322,2.5092 0.73322,0.9288 1.98784,0.9288 1.25463,0 1.98785,-0.9288 0.73322,-0.9287 0.73322,-2.5092 z"
           style="font-style:normal;font-variant:normal;font-weight:300;font-stretch:normal;line-height:100%;font-family:Ubuntu;-inkscape-font-specification:'Ubuntu Light';fill:#ffffff;fill-opacity:1"
           id="path5470"
           inkscape:connector-curvature="0" />
        <path
           d="m 148.28004,1021.0758 q -0.0978,0.081 -0.29329,0.1955 -0.19552,0.098 -0.48881,0.2118 -0.277,0.1141 -0.65175,0.1955 -0.35847,0.065 -0.8147,0.065 -0.73322,0 -1.41756,-0.2281 -0.68434,-0.2281 -1.20574,-0.7169 -0.50511,-0.4888 -0.81469,-1.2546 -0.30958,-0.7821 -0.30958,-1.8901 0,-0.8962 0.27699,-1.662 0.277,-0.7658 0.7821,-1.3198 0.52141,-0.5703 1.25463,-0.8799 0.74951,-0.3258 1.67826,-0.3258 1.17316,0 1.87379,0.1629 0.71693,0.1466 1.17316,0.2933 l 0,7.6907 q 0,1.8901 -0.97763,2.6884 -0.97763,0.8147 -2.94918,0.8147 -0.8147,0 -1.48274,-0.1303 -0.65175,-0.1141 -1.12428,-0.277 l 0.21182,-0.9613 q 0.39106,0.1792 1.0591,0.3095 0.68434,0.1304 1.36868,0.1304 1.49903,0 2.16708,-0.5866 0.68434,-0.5703 0.68434,-1.9715 l 0,-0.554 z m -0.0163,-6.4198 q -0.277,-0.082 -0.71693,-0.1466 -0.43993,-0.082 -1.25462,-0.082 -0.68434,0 -1.22204,0.2444 -0.5214,0.2281 -0.89616,0.668 -0.37476,0.4237 -0.57028,1.0266 -0.19553,0.5865 -0.19553,1.3035 0,0.8309 0.22811,1.4338 0.22812,0.5866 0.58658,0.9614 0.37476,0.3747 0.84728,0.5539 0.47252,0.163 0.96133,0.163 0.71693,0 1.30351,-0.2118 0.60287,-0.2119 0.92875,-0.4889 l 0,-5.4258 z"
           style="font-style:normal;font-variant:normal;font-weight:300;font-stretch:normal;line-height:100%;font-family:Ubuntu;-inkscape-font-specification:'Ubuntu Light';fill:#ffffff;fill-opacity:1"
           id="path5472"
           inkscape:connector-curvature="0" />
        <path
           d="m 153.17251,1022.0534 -1.0591,0 0,-8.4239 1.0591,0 0,8.4239 z m 0.24441,-10.9657 q 0,0.3747 -0.22812,0.6028 -0.22811,0.2119 -0.55399,0.2119 -0.32587,0 -0.55399,-0.2119 -0.22811,-0.2281 -0.22811,-0.6028 0,-0.3748 0.22811,-0.5866 0.22812,-0.2281 0.55399,-0.2281 0.32588,0 0.55399,0.2281 0.22812,0.2118 0.22812,0.5866 z"
           style="font-style:normal;font-variant:normal;font-weight:300;font-stretch:normal;line-height:100%;font-family:Ubuntu;-inkscape-font-specification:'Ubuntu Light';fill:#ffffff;fill-opacity:1"
           id="path5474"
           inkscape:connector-curvature="0" />
        <path
           d="m 155.459,1017.8333 q 0,-1.108 0.30958,-1.9227 0.32587,-0.831 0.83098,-1.3849 0.52141,-0.554 1.17316,-0.8147 0.66804,-0.277 1.36868,-0.277 1.54791,0 2.46037,1.0102 0.92874,1.0102 0.92874,3.1121 0,0.1304 -0.0163,0.2607 0,0.1304 -0.0163,0.2444 l -5.91466,0 q 0.0489,1.5479 0.76581,2.3789 0.71693,0.831 2.28113,0.831 0.86358,0 1.36868,-0.1629 0.50511,-0.163 0.73323,-0.277 l 0.19552,0.9124 q -0.22811,0.1304 -0.86357,0.3096 -0.61917,0.1792 -1.46644,0.1792 -1.10798,0 -1.89009,-0.3258 -0.7821,-0.3259 -1.28721,-0.9125 -0.50511,-0.5866 -0.73322,-1.385 -0.22811,-0.8147 -0.22811,-1.776 z m 5.97983,-0.668 q -0.0326,-1.3198 -0.61917,-2.0531 -0.58658,-0.7332 -1.66197,-0.7332 -0.57028,0 -1.02651,0.2281 -0.43993,0.2281 -0.7821,0.6192 -0.32588,0.3747 -0.5214,0.8799 -0.17924,0.5051 -0.21182,1.0591 l 4.82297,0 z"
           style="font-style:normal;font-variant:normal;font-weight:300;font-stretch:normal;line-height:100%;font-family:Ubuntu;-inkscape-font-specification:'Ubuntu Light';fill:#ffffff;fill-opacity:1"
           id="path5476"
           inkscape:connector-curvature="0" />
        <path
           d="m 166.63375,1021.3039 q 0.91246,0 1.49904,-0.2933 0.60287,-0.3096 0.60287,-1.0265 0,-0.3422 -0.11406,-0.5866 -0.0978,-0.2444 -0.34217,-0.4399 -0.24441,-0.1955 -0.65175,-0.3748 -0.39105,-0.1792 -0.97763,-0.4236 -0.47252,-0.1955 -0.89616,-0.3911 -0.42364,-0.2118 -0.74952,-0.4725 -0.32587,-0.277 -0.5214,-0.6517 -0.19553,-0.3748 -0.19553,-0.9125 0,-1.0265 0.76581,-1.662 0.78211,-0.6354 2.13449,-0.6354 0.86358,0 1.41757,0.1466 0.57028,0.1467 0.79839,0.2607 l -0.2444,0.9451 q -0.19553,-0.098 -0.66805,-0.2607 -0.45623,-0.163 -1.35239,-0.163 -0.35846,0 -0.68434,0.082 -0.30958,0.065 -0.55399,0.2281 -0.24441,0.1466 -0.39105,0.3911 -0.14664,0.2281 -0.14664,0.5702 0,0.3422 0.13035,0.5866 0.13035,0.2444 0.37475,0.4399 0.26071,0.1793 0.61917,0.3422 0.37476,0.163 0.84728,0.3585 0.48881,0.1955 0.92875,0.4073 0.45622,0.1956 0.79839,0.4888 0.34217,0.277 0.55399,0.6844 0.21182,0.391 0.21182,0.9939 0,1.1406 -0.86357,1.7272 -0.84728,0.5865 -2.33002,0.5865 -1.10798,0 -1.69455,-0.1955 -0.58658,-0.1792 -0.78211,-0.277 l 0.277,-0.9613 q 0.0489,0.033 0.21182,0.114 0.16294,0.065 0.43993,0.163 0.277,0.081 0.65175,0.1466 0.39106,0.065 0.89616,0.065 z"
           style="font-style:normal;font-variant:normal;font-weight:300;font-stretch:normal;line-height:100%;font-family:Ubuntu;-inkscape-font-specification:'Ubuntu Light';fill:#ffffff;fill-opacity:1"
           id="path5478"
           inkscape:connector-curvature="0" />
      </g>
    </g>
  </g>
</svg>
