<?xml version="1.0" encoding="UTF-8" standalone="no"?>
<svg
   xmlns:dc="http://purl.org/dc/elements/1.1/"
   xmlns:cc="http://creativecommons.org/ns#"
   xmlns:rdf="http://www.w3.org/1999/02/22-rdf-syntax-ns#"
   xmlns:svg="http://www.w3.org/2000/svg"
   xmlns="http://www.w3.org/2000/svg"
   version="1.1"
   id="svg4803"
   viewBox="0 0 1500 299.99999"
   height="84.666664mm"
   width="423.33334mm">
  <defs
     id="defs4805">
    <clipPath
       id="clipPath4786"
       clipPathUnits="userSpaceOnUse">
      <polygon
         transform="translate(0,-0.99998)"
         style="fill:#394856;fill-opacity:1"
         id="polygon4788"
         points="525,200 750,50 1100,250 1500,0 1500,300 0,300 0,0 275,200 400,100 " />
    </clipPath>
  </defs>
  <metadata
     id="metadata4808">
    <rdf:RDF>
      <cc:Work
         rdf:about="">
        <dc:format>image/svg+xml</dc:format>
        <dc:type
           rdf:resource="http://purl.org/dc/dcmitype/StillImage" />
        <dc:title></dc:title>
      </cc:Work>
    </rdf:RDF>
  </metadata>
  <g
     transform="translate(270,-728.07649)"
     id="layer1">
    <polygon
       transform="translate(-270,728.07649)"
       style="fill:#394856;fill-opacity:1"
       id="polygon6"
       points="0,300 0,0 275,200 400,100 525,200 750,50 1100,250 1500,0 1500,300 " />
    <polygon
       transform="translate(-270,728.07649)"
       style="fill:#404e5c;fill-opacity:1"
       id="polygon8"
       points="410,300 0,0 175,300 " />
    <polygon
       transform="translate(-270,728.07649)"
       clip-path="url(#clipPath4786)"
       style="fill:#404e5c;fill-opacity:1"
       id="polygon10"
       points="900,365 750,50 1100,250 " />
  </g>
</svg>
